<svg style="isolation:isolate" width="292" height="292" xmlns="http://www.w3.org/2000/svg"><defs><clipPath id="a"><path d="M0 0h560v315H0z"/></clipPath></defs><g clip-path="url(#a)" transform="translate(-134 -27.37)"><path d="M171.293 81.326v0c8.321 0 15.077 6.755 15.077 15.076v19.044c0 8.32-6.756 15.076-15.077 15.076v0c-8.32 0-15.076-6.756-15.076-15.076V96.402c0-8.321 6.756-15.076 15.076-15.076z" style="fill:none;stroke:#000;stroke-width:1.58696;stroke-linecap:square;stroke-miterlimit:3" transform="translate(0 16)"/><path d="M148.283 84.5c7.882 0 14.282 6.4 14.282 14.283v11.108c0 7.883-6.4 14.283-14.282 14.283-7.883 0-14.283-6.4-14.283-14.283V98.783c0-7.883 6.4-14.283 14.283-14.283Z" style="fill:#f08638;stroke:none;stroke-linecap:square;stroke-miterlimit:3" transform="translate(0 16)"/><path d="M388.707 81.326v0c-8.321 0-15.077 6.755-15.077 15.076v19.044c0 8.32 6.756 15.076 15.077 15.076v0c8.32 0 15.076-6.756 15.076-15.076V96.402c0-8.321-6.756-15.076-15.076-15.076z" style="fill:none;stroke:#000;stroke-width:1.58696;stroke-linecap:square;stroke-miterlimit:3" transform="translate(0 16)"/><path d="M411.717 84.5c-7.882 0-14.282 6.4-14.282 14.283v11.108c0 7.883 6.4 14.283 14.282 14.283 7.883 0 14.283-6.4 14.283-14.283V98.783c0-7.883-6.4-14.283-14.283-14.283Z" style="fill:#f08638;stroke:none;stroke-linecap:square;stroke-miterlimit:3" transform="translate(0 16)"/><path d="M386.313 246.5c.012-.252.013-.507.013-.762V109.197c0-36.331-29.496-65.827-65.827-65.827h-84.172c-36.331 0-65.827 29.496-65.827 65.827v136.541c0 .255.001.51.013.762z" fill="#ffd038"/><path d="M191.162 243.326h11.045c9.652 0 17.489 7.836 17.489 17.488v25.328c0 9.652-7.837 17.488-17.489 17.488h-11.045c-9.652 0-17.488-7.836-17.488-17.488v-25.328c0-9.652 7.836-17.488 17.488-17.488zm166.631 0h11.045c9.652 0 17.488 7.836 17.488 17.488v25.328c0 9.652-7.836 17.488-17.488 17.488h-11.045c-9.652 0-17.489-7.836-17.489-17.488v-25.328c0-9.652 7.837-17.488 17.489-17.488z" style="fill:#333238;stroke:none;stroke-linecap:square;stroke-miterlimit:3"/><path d="M345.065 84.63h-60.304v61.892h60.304c15.766 0 28.565-12.8 28.565-28.565v-4.761c0-15.766-12.799-28.566-28.565-28.566Zm-130.13 0h60.304v61.892h-60.304c-15.766 0-28.565-12.8-28.565-28.565v-4.761c0-15.766 12.799-28.566 28.565-28.566z" fill="#e9f8fd"/><path d="M168.913 254.435v-52.544c0-38.442 31.21-69.652 69.652-69.652h78.11c38.441 0 69.651 31.21 69.651 69.652v52.544z" fill="#ffb333"/><path d="M166.533 249.674h223.76c3.942 0 7.142 3.2 7.142 7.141 0 3.942-3.2 7.142-7.142 7.142h-223.76a7.145 7.145 0 0 1-7.142-7.142c0-3.941 3.2-7.141 7.142-7.141z" style="fill:#4f424a;fill-opacity:1;stroke:none;stroke-linecap:square;stroke-miterlimit:3"/><path d="M186.37 193.337c0-10.072 8.177-18.25 18.25-18.25 10.072 0 18.25 8.178 18.25 18.25s-8.178 18.25-18.25 18.25c-10.073 0-18.25-8.178-18.25-18.25zm149.173 0c0-10.072 8.178-18.25 18.25-18.25 10.073 0 18.25 8.178 18.25 18.25s-8.177 18.25-18.25 18.25c-10.072 0-18.25-8.178-18.25-18.25z" fill="#c2e8eb"/><path d="M252.078 168.739h52.671c13.492 0 24.447 10.954 24.447 24.447v12.997c0 13.493-10.955 24.447-24.447 24.447h-52.671c-13.493 0-24.448-10.954-24.448-24.447v-12.997c0-13.493 10.955-24.447 24.448-24.447z" style="fill:#4f424a;stroke:none;stroke-linecap:square;stroke-miterlimit:3"/><path d="M252.228 221.902h50.783c4.817 0 8.728 3.911 8.728 8.728 0 4.818-3.911 8.729-8.728 8.729h-50.783c-4.817 0-8.728-3.911-8.728-8.729 0-4.817 3.911-8.728 8.728-8.728z" style="fill:#7e5424;stroke:none;stroke-linecap:square;stroke-miterlimit:3"/><path d="M252.228 248.087h50.783c4.817 0 8.728 3.911 8.728 8.728s-3.911 8.728-8.728 8.728h-50.783c-4.817 0-8.728-3.911-8.728-8.728s3.911-8.728 8.728-8.728z" style="fill:#fffff3;stroke:none;stroke-linecap:square;stroke-miterlimit:3"/><path d="M199.462 221.902h10.315a5.954 5.954 0 0 1 5.951 5.951 5.953 5.953 0 0 1-5.951 5.951h-10.315a5.953 5.953 0 0 1-5.951-5.951 5.954 5.954 0 0 1 5.951-5.951zm149.174 0h10.315a5.954 5.954 0 0 1 5.951 5.951 5.953 5.953 0 0 1-5.951 5.951h-10.315a5.953 5.953 0 0 1-5.951-5.951 5.954 5.954 0 0 1 5.951-5.951z" style="fill:#df4641;stroke:none;stroke-linecap:square;stroke-miterlimit:3"/><path d="M358.194 78.283c-4.268-17.305-19.905-30.153-38.52-30.153h-82.522c-18.615 0-34.252 12.848-38.52 30.153z" fill="#4f424a"/></g></svg>